<svg width="372" height="90" viewBox="0 0 372 90" fill="none" xmlns="http://www.w3.org/2000/svg">
<path fill-rule="evenodd" clip-rule="evenodd" d="M43 0L48.9926 10.4522C47.0382 10.1544 45.037 10 43 10C40.963 10 38.9618 10.1544 37.0074 10.4522L43 0ZM34.3676 15.0566L37.0074 10.4522C17.913 13.3618 3.2783 29.9599 3.2783 50C3.2783 55.1346 4.23902 60.0432 5.9893 64.5535L0 75H11.9904C19.27 84.1446 30.456 90 43 90C55.544 90 66.73 84.1446 74.0096 75H86L80.0107 64.5535C81.761 60.0432 82.7217 55.1346 82.7217 50C82.7217 29.9599 68.087 13.3618 48.9926 10.4522L51.6324 15.0566C48.8679 14.3663 45.9764 14 43 14C40.0236 14 37.1321 14.3663 34.3676 15.0566ZM8.63187 59.9444L34.3676 15.0566C18.7941 18.9451 7.25047 33.115 7.25047 50C7.25047 53.4496 7.7323 56.7859 8.63187 59.9444ZM17.2765 75C13.274 70.8247 10.2647 65.6775 8.63187 59.9444L5.9893 64.5535C7.46358 68.3526 9.49804 71.8691 11.9904 75H17.2765ZM18.7513 75H17.2765C23.7779 81.7821 32.8998 86 43 86C53.1002 86 62.2221 81.7821 68.7235 75H74.0096C76.502 71.8691 78.5364 68.3526 80.0107 64.5535L77.3681 59.9444C78.2677 56.7859 78.7495 53.4496 78.7495 50C78.7495 33.115 67.2059 18.9451 51.6324 15.0566L77.3681 59.9444C75.7353 65.6775 72.726 70.8247 68.7235 75H67.2487L43 33L18.7513 75Z" fill="white"/>
<path d="M109.808 54.456H100.496L98.896 59H95.088L103.056 36.728H107.28L115.248 59H111.408L109.808 54.456ZM108.784 51.48L105.168 41.144L101.52 51.48H108.784ZM118.296 50.104C118.296 48.3333 118.659 46.7653 119.384 45.4C120.131 44.0347 121.134 42.9787 122.392 42.232C123.672 41.464 125.091 41.08 126.648 41.08C127.8 41.08 128.931 41.336 130.04 41.848C131.171 42.3387 132.067 43 132.729 43.832V35.32H136.409V59H132.729V56.344C132.131 57.1973 131.299 57.9013 130.233 58.456C129.187 59.0107 127.982 59.288 126.616 59.288C125.08 59.288 123.672 58.904 122.392 58.136C121.134 57.3467 120.131 56.2587 119.384 54.872C118.659 53.464 118.296 51.8747 118.296 50.104ZM132.729 50.168C132.729 48.952 132.473 47.896 131.96 47C131.47 46.104 130.819 45.4213 130.009 44.952C129.198 44.4827 128.323 44.248 127.384 44.248C126.446 44.248 125.571 44.4827 124.76 44.952C123.95 45.4 123.288 46.072 122.776 46.968C122.286 47.8427 122.04 48.888 122.04 50.104C122.04 51.32 122.286 52.3867 122.776 53.304C123.288 54.2213 123.95 54.9253 124.76 55.416C125.592 55.8853 126.467 56.12 127.384 56.12C128.323 56.12 129.198 55.8853 130.009 55.416C130.819 54.9467 131.47 54.264 131.96 53.368C132.473 52.4507 132.729 51.384 132.729 50.168ZM148.816 55.736L153.808 41.368H157.68L150.96 59H146.608L139.92 41.368H143.824L148.816 55.736ZM177.398 49.752C177.398 50.4133 177.355 51.0107 177.27 51.544H163.798C163.904 52.952 164.427 54.0827 165.366 54.936C166.304 55.7893 167.456 56.216 168.822 56.216C170.784 56.216 172.171 55.3947 172.982 53.752H176.918C176.384 55.3733 175.414 56.7067 174.006 57.752C172.619 58.776 170.891 59.288 168.822 59.288C167.136 59.288 165.622 58.9147 164.278 58.168C162.955 57.4 161.91 56.3333 161.142 54.968C160.395 53.5813 160.022 51.9813 160.022 50.168C160.022 48.3547 160.384 46.7653 161.11 45.4C161.856 44.0133 162.891 42.9467 164.214 42.2C165.558 41.4533 167.094 41.08 168.822 41.08C170.486 41.08 171.968 41.4427 173.27 42.168C174.571 42.8933 175.584 43.9173 176.31 45.24C177.035 46.5413 177.398 48.0453 177.398 49.752ZM173.59 48.6C173.568 47.256 173.088 46.1787 172.15 45.368C171.211 44.5573 170.048 44.152 168.662 44.152C167.403 44.152 166.326 44.5573 165.43 45.368C164.534 46.1573 164 47.2347 163.83 48.6H173.59ZM190.683 41.08C192.07 41.08 193.307 41.368 194.395 41.944C195.505 42.52 196.369 43.3733 196.987 44.504C197.606 45.6347 197.915 47 197.915 48.6V59H194.299V49.144C194.299 47.5653 193.905 46.36 193.115 45.528C192.326 44.6747 191.249 44.248 189.883 44.248C188.518 44.248 187.43 44.6747 186.619 45.528C185.83 46.36 185.435 47.5653 185.435 49.144V59H181.787V41.368H185.435V43.384C186.033 42.6587 186.79 42.0933 187.707 41.688C188.646 41.2827 189.638 41.08 190.683 41.08ZM207.625 44.344V54.104C207.625 54.7653 207.774 55.2453 208.073 55.544C208.393 55.8213 208.926 55.96 209.673 55.96H211.913V59H209.033C207.39 59 206.131 58.616 205.257 57.848C204.382 57.08 203.945 55.832 203.945 54.104V44.344H201.865V41.368H203.945V36.984H207.625V41.368H211.913V44.344H207.625ZM232.043 41.368V59H228.395V56.92C227.819 57.6453 227.062 58.2213 226.123 58.648C225.206 59.0533 224.224 59.256 223.179 59.256C221.792 59.256 220.544 58.968 219.435 58.392C218.347 57.816 217.483 56.9627 216.843 55.832C216.224 54.7013 215.915 53.336 215.915 51.736V41.368H219.531V51.192C219.531 52.7707 219.926 53.9867 220.715 54.84C221.504 55.672 222.582 56.088 223.947 56.088C225.312 56.088 226.39 55.672 227.179 54.84C227.99 53.9867 228.395 52.7707 228.395 51.192V41.368H232.043ZM241.304 43.928C241.838 43.032 242.542 42.3387 243.416 41.848C244.312 41.336 245.368 41.08 246.584 41.08V44.856H245.656C244.227 44.856 243.139 45.2187 242.392 45.944C241.667 46.6693 241.304 47.928 241.304 49.72V59H237.656V41.368H241.304V43.928ZM266.897 49.752C266.897 50.4133 266.855 51.0107 266.769 51.544H253.297C253.404 52.952 253.927 54.0827 254.865 54.936C255.804 55.7893 256.956 56.216 258.321 56.216C260.284 56.216 261.671 55.3947 262.481 53.752H266.417C265.884 55.3733 264.913 56.7067 263.505 57.752C262.119 58.776 260.391 59.288 258.321 59.288C256.636 59.288 255.121 58.9147 253.777 58.168C252.455 57.4 251.409 56.3333 250.641 54.968C249.895 53.5813 249.521 51.9813 249.521 50.168C249.521 48.3547 249.884 46.7653 250.609 45.4C251.356 44.0133 252.391 42.9467 253.713 42.2C255.057 41.4533 256.593 41.08 258.321 41.08C259.985 41.08 261.468 41.4427 262.769 42.168C264.071 42.8933 265.084 43.9173 265.809 45.24C266.535 46.5413 266.897 48.0453 266.897 49.752ZM263.089 48.6C263.068 47.256 262.588 46.1787 261.649 45.368C260.711 44.5573 259.548 44.152 258.161 44.152C256.903 44.152 255.825 44.5573 254.929 45.368C254.033 46.1573 253.5 47.2347 253.329 48.6H263.089ZM285.655 36.76V39.736H279.735V59H276.087V39.736H270.135V36.76H285.655ZM293.798 43.928C294.331 43.032 295.035 42.3387 295.91 41.848C296.806 41.336 297.862 41.08 299.078 41.08V44.856H298.15C296.721 44.856 295.633 45.2187 294.886 45.944C294.161 46.6693 293.798 47.928 293.798 49.72V59H290.15V41.368H293.798V43.928ZM302.015 50.104C302.015 48.3333 302.378 46.7653 303.103 45.4C303.85 44.0347 304.853 42.9787 306.111 42.232C307.391 41.464 308.799 41.08 310.335 41.08C311.722 41.08 312.927 41.3573 313.951 41.912C314.997 42.4453 315.829 43.1173 316.447 43.928V41.368H320.127V59H316.447V56.376C315.829 57.208 314.986 57.9013 313.919 58.456C312.853 59.0107 311.637 59.288 310.271 59.288C308.757 59.288 307.37 58.904 306.111 58.136C304.853 57.3467 303.85 56.2587 303.103 54.872C302.378 53.464 302.015 51.8747 302.015 50.104ZM316.447 50.168C316.447 48.952 316.191 47.896 315.679 47C315.189 46.104 314.538 45.4213 313.727 44.952C312.917 44.4827 312.042 44.248 311.103 44.248C310.165 44.248 309.29 44.4827 308.479 44.952C307.669 45.4 307.007 46.072 306.495 46.968C306.005 47.8427 305.759 48.888 305.759 50.104C305.759 51.32 306.005 52.3867 306.495 53.304C307.007 54.2213 307.669 54.9253 308.479 55.416C309.311 55.8853 310.186 56.12 311.103 56.12C312.042 56.12 312.917 55.8853 313.727 55.416C314.538 54.9467 315.189 54.264 315.679 53.368C316.191 52.4507 316.447 51.384 316.447 50.168ZM332.535 55.736L337.527 41.368H341.399L334.679 59H330.327L323.639 41.368H327.543L332.535 55.736ZM361.116 49.752C361.116 50.4133 361.074 51.0107 360.988 51.544H347.516C347.623 52.952 348.146 54.0827 349.084 54.936C350.023 55.7893 351.175 56.216 352.54 56.216C354.503 56.216 355.89 55.3947 356.7 53.752H360.636C360.103 55.3733 359.132 56.7067 357.724 57.752C356.338 58.776 354.61 59.288 352.54 59.288C350.855 59.288 349.34 58.9147 347.996 58.168C346.674 57.4 345.628 56.3333 344.86 54.968C344.114 53.5813 343.74 51.9813 343.74 50.168C343.74 48.3547 344.103 46.7653 344.828 45.4C345.575 44.0133 346.61 42.9467 347.932 42.2C349.276 41.4533 350.812 41.08 352.54 41.08C354.204 41.08 355.687 41.4427 356.988 42.168C358.29 42.8933 359.303 43.9173 360.028 45.24C360.754 46.5413 361.116 48.0453 361.116 49.752ZM357.308 48.6C357.287 47.256 356.807 46.1787 355.868 45.368C354.93 44.5573 353.767 44.152 352.38 44.152C351.122 44.152 350.044 44.5573 349.148 45.368C348.252 46.1573 347.719 47.2347 347.548 48.6H357.308ZM369.154 35.32V59H365.506V35.32H369.154Z" fill="white"/>
</svg>
